<?xml version="1.0" encoding="UTF-8" standalone="no"?>
<svg width="43.7444mm" height="42.3333mm"
 viewBox="0 0 124 120"
 xmlns="http://www.w3.org/2000/svg" xmlns:xlink="http://www.w3.org/1999/xlink"  version="1.2" baseProfile="tiny">
<title>Qt SVG Document</title>
<desc>Generated with Qt</desc>
<defs>
</defs>
<g fill="none" stroke="black" stroke-width="1" fill-rule="evenodd" stroke-linecap="square" stroke-linejoin="bevel" >

<g fill="#000000" fill-opacity="1" stroke="none" transform="matrix(1,0,0,1,0,0)"
font-family="Inter" font-size="10" font-weight="400" font-style="normal" 
>
<rect x="0" y="0" width="124" height="120"/>
</g>

<g fill="#00ffff" fill-opacity="1" stroke="none" transform="matrix(1,0,0,1,0,0)"
font-family="Inter" font-size="10" font-weight="400" font-style="normal" 
>
<rect x="3" y="2" width="4" height="4"/>
</g>

<g fill="#0000ff" fill-opacity="1" stroke="none" transform="matrix(1,0,0,1,0,0)"
font-family="Inter" font-size="10" font-weight="400" font-style="normal" 
>
<rect x="3" y="76" width="4" height="4"/>
</g>

<g fill="#00ffff" fill-opacity="1" stroke="none" transform="matrix(1,0,0,1,0,0)"
font-family="Inter" font-size="10" font-weight="400" font-style="normal" 
>
<rect x="3" y="76" width="4" height="4"/>
</g>

<g fill="#0000ff" fill-opacity="1" stroke="none" transform="matrix(1,0,0,1,0,0)"
font-family="Inter" font-size="10" font-weight="400" font-style="normal" 
>
<rect x="67" y="39" width="4" height="4"/>
</g>

<g fill="#00ffff" fill-opacity="1" stroke="none" transform="matrix(1,0,0,1,0,0)"
font-family="Inter" font-size="10" font-weight="400" font-style="normal" 
>
<rect x="67" y="39" width="4" height="4"/>
</g>

<g fill="#0000ff" fill-opacity="1" stroke="none" transform="matrix(1,0,0,1,0,0)"
font-family="Inter" font-size="10" font-weight="400" font-style="normal" 
>
<rect x="3" y="2" width="4" height="4"/>
</g>

<g fill="#00ffff" fill-opacity="1" stroke="none" transform="matrix(1,0,0,1,0,0)"
font-family="Inter" font-size="10" font-weight="400" font-style="normal" 
>
<rect x="3" y="2" width="4" height="4"/>
</g>

<g fill="#0000ff" fill-opacity="1" stroke="none" transform="matrix(1,0,0,1,0,0)"
font-family="Inter" font-size="10" font-weight="400" font-style="normal" 
>
<rect x="40" y="76" width="4" height="4"/>
</g>

<g fill="#00ffff" fill-opacity="1" stroke="none" transform="matrix(1,0,0,1,0,0)"
font-family="Inter" font-size="10" font-weight="400" font-style="normal" 
>
<rect x="40" y="76" width="4" height="4"/>
</g>

<g fill="#0000ff" fill-opacity="1" stroke="none" transform="matrix(1,0,0,1,0,0)"
font-family="Inter" font-size="10" font-weight="400" font-style="normal" 
>
<rect x="85" y="7" width="4" height="4"/>
</g>

<g fill="#00ffff" fill-opacity="1" stroke="none" transform="matrix(1,0,0,1,0,0)"
font-family="Inter" font-size="10" font-weight="400" font-style="normal" 
>
<rect x="85" y="7" width="4" height="4"/>
</g>

<g fill="#0000ff" fill-opacity="1" stroke="none" transform="matrix(1,0,0,1,0,0)"
font-family="Inter" font-size="10" font-weight="400" font-style="normal" 
>
<rect x="3" y="2" width="4" height="4"/>
</g>

<g fill="#00ffff" fill-opacity="1" stroke="none" transform="matrix(1,0,0,1,0,0)"
font-family="Inter" font-size="10" font-weight="400" font-style="normal" 
>
<rect x="3" y="2" width="4" height="4"/>
</g>

<g fill="#0000ff" fill-opacity="1" stroke="none" transform="matrix(1,0,0,1,0,0)"
font-family="Inter" font-size="10" font-weight="400" font-style="normal" 
>
<rect x="40" y="112" width="4" height="4"/>
</g>

<g fill="#00ffff" fill-opacity="1" stroke="none" transform="matrix(1,0,0,1,0,0)"
font-family="Inter" font-size="10" font-weight="400" font-style="normal" 
>
<rect x="40" y="112" width="4" height="4"/>
</g>

<g fill="#0000ff" fill-opacity="1" stroke="none" transform="matrix(1,0,0,1,0,0)"
font-family="Inter" font-size="10" font-weight="400" font-style="normal" 
>
<rect x="117" y="25" width="4" height="4"/>
</g>

<g fill="#00ffff" fill-opacity="1" stroke="none" transform="matrix(1,0,0,1,0,0)"
font-family="Inter" font-size="10" font-weight="400" font-style="normal" 
>
<rect x="117" y="25" width="4" height="4"/>
</g>

<g fill="#0000ff" fill-opacity="1" stroke="none" transform="matrix(1,0,0,1,0,0)"
font-family="Inter" font-size="10" font-weight="400" font-style="normal" 
>
<rect x="3" y="2" width="4" height="4"/>
</g>
</g>
</svg>
